<?xml version="1.0" standalone="no"?>
<!DOCTYPE svg PUBLIC "-//W3C//DTD SVG 20010904//EN"
 "http://www.w3.org/TR/2001/REC-SVG-20010904/DTD/svg10.dtd">
<svg version="1.0" 
xmlns="http://www.w3.org/2000/svg"
 width="200pt" 
 height="250pt" 
 viewBox="0 0 447.000000 559.000000"
 preserveAspectRatio="xMidYMid meet">



<g transform="translate(0.000000,559.000000) scale(0.100000,-0.100000)"
fill="#ff4a3f" stroke="none">
<path d="M2200 4681 c-179 -58 -353 -203 -447 -371 -32 -57 -76 -185 -87 -256
-7 -38 -13 -45 -99 -102 -156 -102 -296 -235 -371 -353 -46 -73 -38 -450 15
-681 l11 -47 50 40 c56 44 70 44 43 2 -24 -39 -50 -58 -125 -98 -74 -38 -142
-103 -165 -157 -21 -51 -19 -127 5 -190 11 -29 20 -54 20 -56 0 -2 -29 -1 -64
3 l-64 7 -10 -48 c-19 -90 -24 -218 -13 -325 35 -325 179 -591 427 -789 l72
-57 -77 -6 c-42 -3 -98 -13 -124 -22 -94 -33 -200 -162 -225 -273 l-10 -42 41
35 c119 102 365 113 673 29 174 -48 337 -57 441 -26 37 12 89 35 115 52 50 33
105 99 114 137 5 17 18 26 48 33 77 20 191 62 256 95 58 30 76 34 170 38 323
16 540 164 591 402 30 141 116 235 216 235 20 0 24 3 16 11 -8 8 -44 10 -106
7 -85 -3 -103 -8 -170 -41 -50 -25 -90 -54 -118 -85 -38 -43 -58 -80 -137
-256 -49 -108 -150 -190 -249 -202 l-48 -6 72 73 c111 115 168 217 203 362 11
44 26 89 34 102 23 34 113 74 205 90 138 24 241 94 298 202 75 140 60 250 -44
343 -89 79 -210 116 -336 103 l-59 -6 41 44 c23 24 51 62 63 83 23 44 27 120
9 155 -7 11 -9 21 -7 21 12 0 36 -61 36 -88 0 -16 -7 -48 -15 -71 -17 -50 -6
-46 34 13 95 137 89 291 -15 406 -50 55 -104 80 -174 80 -78 0 -132 -29 -211
-110 -37 -39 -70 -67 -73 -62 -2 4 18 34 45 67 109 131 201 297 235 420 26 98
30 283 8 411 -14 78 -19 158 -19 279 0 183 8 227 51 290 14 20 23 40 20 42
-10 10 -182 -175 -215 -231 -19 -32 -47 -92 -62 -134 -31 -89 -31 -88 -50 80
-6 58 -14 110 -18 116 -3 5 -25 19 -47 30 -41 21 -41 21 -93 2 -28 -11 -55
-20 -60 -20 -5 0 -26 30 -46 68 -97 174 -161 222 -294 221 -44 0 -99 -8 -131
-18z m211 -13 c43 -12 106 -62 141 -110 21 -30 20 -30 -30 9 -73 59 -126 76
-209 71 -63 -4 -153 -32 -141 -43 3 -3 24 2 48 10 23 8 68 14 99 14 l56 -1
-58 -9 c-57 -8 -187 -64 -187 -80 0 -4 26 4 58 19 45 21 74 27 137 29 71 1 75
1 29 -6 -61 -10 -129 -40 -169 -76 l-30 -26 41 25 c82 49 185 69 239 46 16 -7
12 -9 -20 -10 -43 -1 -111 -27 -152 -60 -35 -27 -26 -25 43 10 67 34 128 39
174 15 17 -9 30 -17 30 -18 0 -2 -22 -4 -48 -4 -65 -1 -105 -23 -317 -174
-302 -215 -361 -272 -430 -414 l-35 -70 0 93 c0 279 119 507 345 657 153 102
279 136 386 103z m729 -207 c0 -5 -21 -33 -47 -62 -27 -28 -58 -68 -70 -88
-26 -44 -58 -140 -67 -201 -9 -57 6 -43 29 28 19 59 27 67 19 20 -5 -31 -4
-32 10 -15 14 18 15 17 19 -10 3 -21 5 -17 7 17 l3 45 7 -40 c7 -37 7 -38 10
-10 2 26 3 25 11 -14 15 -80 24 -62 25 52 2 183 19 215 20 40 1 -90 8 -181 18
-232 10 -52 16 -135 16 -221 0 -161 -18 -244 -80 -377 -42 -89 -61 -108 -35
-34 8 23 17 72 20 109 l6 67 -21 -74 c-18 -68 -64 -181 -73 -181 -2 0 5 30 14
68 11 40 18 101 17 152 l0 85 -13 -81 c-14 -90 -39 -181 -56 -204 -9 -12 -9
-11 -4 5 4 11 15 49 23 84 14 60 13 71 -7 171 -24 120 -28 275 -11 455 17 180
50 265 153 393 52 64 57 69 57 53z m-611 -37 c17 -14 31 -31 31 -38 0 -6 -42
-22 -92 -35 -51 -13 -149 -43 -218 -67 -68 -24 -127 -41 -130 -38 -2 3 2 9 10
14 8 5 62 43 120 84 152 110 221 129 279 80z m302 -27 c24 -20 27 -33 42 -167
15 -138 13 -214 -8 -280 -4 -12 -27 -43 -52 -68 l-46 -47 27 40 c33 50 34 70
1 30 -30 -36 -34 -24 -5 12 31 40 23 52 -10 16 -16 -18 -32 -33 -34 -33 -3 0
7 21 21 48 l26 47 -69 -71 c-38 -39 -87 -83 -109 -97 -46 -30 -235 -109 -235
-98 0 4 35 22 78 40 149 63 240 141 290 249 25 54 27 67 30 230 4 185 6 190
53 149z m-79 -114 c5 -202 -12 -261 -100 -356 -57 -60 -100 -88 -206 -134 -44
-19 -85 -38 -89 -42 -4 -4 54 -169 129 -367 75 -197 154 -413 176 -479 76
-232 137 -525 114 -554 -8 -10 -15 13 -28 95 -9 60 -17 115 -17 122 -1 6 -8
12 -16 12 -17 0 -116 -78 -168 -134 -54 -57 -155 -192 -179 -239 l-20 -40 -17
39 c-22 47 -41 64 -76 67 -25 2 -28 -3 -49 -73 -52 -176 -166 -318 -317 -390
-118 -56 -206 -73 -349 -67 -247 12 -444 123 -562 319 l-38 62 0 -37 c0 -96
62 -311 128 -442 101 -203 283 -383 449 -445 150 -56 405 -63 579 -16 221 60
428 194 538 350 105 148 145 270 153 464 5 108 8 132 21 132 26 0 11 -243 -22
-353 -66 -220 -188 -380 -375 -490 -358 -212 -745 -231 -1016 -51 -154 102
-321 306 -391 479 -59 144 -96 334 -93 484 0 42 1 44 11 21 61 -139 84 -177
148 -241 54 -54 89 -78 171 -118 144 -70 209 -86 349 -86 95 0 126 4 180 24
93 33 172 84 248 160 121 120 162 231 162 436 0 170 -33 343 -104 538 -33 91
-250 563 -267 582 -6 6 -35 1 -80 -15 -213 -72 -406 -258 -481 -463 -11 -31
-23 -56 -25 -54 -19 20 -44 395 -34 500 7 65 14 86 45 133 67 101 233 250 389
349 21 13 27 14 27 4 -1 -8 -38 -38 -83 -67 -152 -97 -293 -231 -345 -327 -22
-41 -27 -194 -12 -358 7 -73 14 -136 17 -140 3 -4 20 18 39 49 130 216 340
383 515 409 l45 7 86 -179 c185 -378 283 -674 310 -930 11 -108 13 -112 33
-107 15 4 33 -4 55 -22 27 -24 33 -25 41 -12 46 83 201 247 287 304 31 21 61
41 65 45 13 10 -215 635 -349 955 -35 85 -64 159 -64 163 0 5 42 25 93 46 50
20 110 47 132 60 58 33 142 126 170 187 22 48 25 66 25 181 0 70 -3 127 -7
127 -12 0 -501 -149 -583 -177 -41 -14 -99 -36 -127 -49 -29 -13 -53 -21 -53
-20 0 2 24 20 53 40 60 41 268 117 485 177 79 22 167 48 195 58 29 10 57 19
64 20 9 1 13 -33 15 -126z m-106 -231 c-29 -56 -93 -124 -150 -157 -23 -13
-88 -42 -146 -65 -58 -24 -106 -44 -108 -45 -2 -1 31 -83 72 -181 73 -175 249
-638 320 -841 l35 -102 -62 -45 c-68 -49 -185 -165 -239 -237 -31 -42 -36 -45
-53 -33 -10 8 -26 14 -36 14 -13 0 -18 14 -23 78 -21 240 -158 641 -343 1005
l-64 127 -47 0 c-59 -1 -161 -35 -237 -80 -70 -42 -227 -193 -277 -268 -32
-48 -36 -51 -42 -30 -3 13 -6 96 -6 184 l0 162 40 60 c52 77 169 186 275 257
45 30 84 55 87 55 3 0 8 -44 11 -97 4 -54 12 -116 19 -138 l12 -40 8 74 c8 80
45 170 101 253 63 91 195 148 697 300 l175 54 3 -108 c2 -97 0 -112 -22 -156z
m250 -260 c1 -107 6 -180 17 -230 22 -97 21 -150 -4 -224 -23 -69 -66 -148
-80 -148 -13 0 -11 9 11 45 69 112 81 267 33 438 -18 65 -33 60 -33 -9 0 -24
-10 -60 -25 -88 -27 -51 -44 -146 -39 -211 l4 -40 -30 62 -29 62 34 57 c41 68
47 136 17 195 l-18 36 42 46 c37 42 70 97 87 150 4 9 8 17 9 17 2 0 3 -71 4
-158z m-73 57 c-28 -47 -95 -105 -163 -139 -34 -17 -64 -29 -67 -27 -2 3 24
18 59 35 68 33 109 66 153 125 33 45 43 48 18 6z m-68 -165 c12 -27 16 -50 11
-82 -6 -47 -34 -106 -50 -104 -5 0 -26 38 -46 84 -41 90 -40 102 11 113 16 4
31 11 34 16 11 17 23 9 40 -27z m-261 -187 c39 -81 43 -66 6 23 -39 95 -33
102 9 9 17 -40 34 -70 36 -67 3 3 -4 26 -15 52 -30 71 -23 69 15 -4 41 -77 44
-73 10 12 -35 85 -25 84 14 -2 35 -79 51 -95 22 -22 -32 81 -32 89 -1 25 30
-63 48 -85 30 -37 -16 41 -11 42 11 2 27 -52 32 -48 9 8 -27 63 -24 69 6 12
32 -63 39 -61 13 5 -33 81 -32 88 0 20 49 -102 166 -399 210 -530 45 -135 93
-295 89 -298 -2 -1 -43 -24 -92 -50 -90 -49 -105 -49 -106 -5 0 17 -62 232
-84 295 -35 96 -151 405 -216 574 -38 101 -70 187 -69 190 0 3 17 -30 38 -74
21 -44 50 -106 65 -138z m381 41 c8 -84 -6 -179 -37 -251 -31 -70 -41 -41 -36
101 3 97 8 124 26 157 12 22 22 45 22 52 0 7 4 13 9 13 5 0 12 -33 16 -72z
m-1237 -118 c-36 -22 -99 -72 -140 -111 -65 -64 -67 -67 -18 -28 94 75 98 75
20 2 -89 -85 -88 -96 2 -17 59 52 98 80 98 71 0 -3 -25 -24 -55 -47 -31 -24
-66 -57 -77 -74 -20 -28 -18 -27 23 9 24 23 67 55 94 74 28 18 39 23 25 11
-14 -11 -46 -39 -73 -61 -26 -22 -45 -44 -42 -49 3 -5 0 -12 -6 -16 -8 -5 -9
-3 -4 6 5 9 4 11 -4 6 -6 -4 -9 -12 -6 -17 3 -5 -5 -21 -19 -35 -13 -15 -41
-56 -62 -91 -20 -34 -40 -63 -44 -63 -4 0 -31 -16 -60 -36 l-53 -36 7 28 c44
176 194 370 361 468 44 25 84 46 90 46 5 0 -20 -18 -57 -40z m263 -145 c27
-57 49 -108 49 -113 0 -11 -50 -57 -79 -72 -29 -15 -115 -16 -152 -2 -44 17
-88 70 -95 113 -6 33 -9 37 -21 27 -33 -27 -63 -107 -63 -166 0 -68 33 -131
95 -178 47 -36 119 -38 180 -7 39 20 119 98 161 158 l21 30 16 -31 c16 -31 16
-32 -34 -116 -61 -102 -168 -230 -242 -290 -118 -94 -167 -201 -167 -362 1
-106 9 -149 52 -260 l32 -81 13 67 c19 106 53 161 167 273 111 109 168 184
191 255 8 25 21 101 30 170 9 69 20 129 24 133 9 9 30 -53 56 -169 9 -38 19
-132 22 -210 7 -166 -8 -254 -60 -349 -30 -55 -39 -63 -107 -97 -99 -48 -214
-79 -320 -85 l-85 -5 -23 40 c-63 113 -103 268 -104 407 -2 149 27 244 116
389 20 33 36 63 36 68 0 12 -98 -34 -172 -81 -80 -50 -175 -149 -209 -217 -20
-42 -24 -63 -24 -144 0 -82 4 -103 27 -153 15 -32 51 -83 81 -115 63 -67 100
-118 95 -132 -5 -17 -102 55 -156 116 -55 61 -118 175 -146 261 -9 28 -23 54
-31 57 -11 4 -13 11 -5 31 18 48 55 87 137 147 92 66 142 121 175 194 19 41
23 66 23 149 0 115 7 133 85 218 71 77 159 142 264 193 49 24 91 44 93 44 3 0
27 -47 54 -105z m-341 -28 c0 -2 -12 -14 -27 -28 l-28 -24 24 28 c23 25 31 32
31 24z m1689 -63 c54 -28 101 -79 128 -144 19 -44 19 -142 0 -195 l-14 -39 -7
28 c-11 46 -33 71 -89 102 -45 25 -62 28 -132 28 -48 0 -70 3 -55 7 61 17 127
10 186 -22 46 -24 54 -26 40 -10 -10 11 -39 30 -63 42 -37 18 -56 21 -116 16
-40 -2 -81 -8 -92 -11 -11 -4 -6 1 10 11 21 12 51 17 102 18 48 0 69 3 62 10
-19 19 -140 11 -193 -13 -26 -12 -44 -16 -38 -9 15 18 95 57 151 73 l46 14
-52 -5 c-30 -2 -78 -17 -114 -35 -34 -17 -64 -29 -66 -26 -8 8 122 109 166
129 55 24 116 19 163 -14 31 -21 32 -21 15 -2 -69 79 -175 66 -308 -38 -32
-25 -46 -33 -34 -18 100 123 197 156 304 103z m-1522 -123 c49 -14 94 -14 130
0 21 8 25 8 16 -2 -6 -6 -40 -20 -75 -29 -60 -18 -61 -19 -23 -19 22 0 57 6
77 13 48 17 41 4 -9 -16 -96 -39 -91 -37 -66 -37 13 -1 46 8 74 18 42 16 48
17 37 4 -7 -9 -35 -27 -63 -39 -39 -19 -45 -24 -25 -24 14 0 41 10 60 21 27
17 31 18 20 4 -28 -34 -114 -75 -158 -75 -36 0 -49 6 -86 40 -54 50 -76 95
-75 152 l1 43 10 -45 c12 -56 32 -80 26 -31 l-5 34 19 -26 c24 -32 44 -36 27
-6 -11 21 -10 21 12 5 41 -28 41 -17 -1 35 -51 65 -51 77 0 28 22 -21 57 -43
77 -48z m1393 -136 c-25 -8 -71 -30 -104 -50 -60 -36 -91 -38 -59 -3 35 39
105 66 173 66 l35 1 -45 -14z m120 -35 c11 -8 8 -9 -12 -4 -18 4 -28 2 -28 -5
0 -6 9 -11 20 -11 13 0 24 -10 30 -26 15 -38 13 -40 -31 -36 -30 3 -48 -1 -67
-15 -48 -35 -162 -83 -162 -67 0 2 23 15 50 29 46 23 59 45 27 45 -7 0 -6 -4
3 -11 12 -9 12 -10 -3 -5 -10 3 -22 6 -25 6 -4 1 4 7 18 15 29 16 9 20 -23 4
-21 -10 -21 -10 -3 5 11 9 24 16 30 16 5 0 7 2 4 5 -3 3 -29 -3 -57 -14 -28
-10 -51 -17 -51 -16 0 9 97 70 130 81 42 16 129 18 150 4z m-1973 -75 c-54
-49 -53 -56 2 -24 l36 21 -40 -36 c-22 -20 -34 -36 -27 -36 7 0 35 22 63 50
52 52 49 28 -4 -27 -17 -18 -26 -33 -20 -33 14 0 93 86 93 101 0 7 3 10 6 7
11 -11 -45 -113 -85 -155 -22 -23 -65 -58 -96 -78 -30 -21 -76 -60 -102 -89
-31 -34 -40 -41 -29 -21 10 17 39 49 64 73 41 37 35 49 -8 18 -8 -6 -6 -1 4
12 11 12 14 22 8 22 -6 0 -14 -4 -17 -10 -12 -20 -26 -10 -15 10 16 30 -3 24
-22 -7 l-17 -28 -1 30 c0 24 -2 27 -11 15 -8 -11 -9 -9 -4 10 10 38 56 92 106
124 61 39 153 94 159 95 3 0 -17 -20 -43 -44z m677 -7 c-24 -42 -97 -138 -128
-167 -20 -19 -36 -39 -36 -45 0 -16 97 82 151 153 27 35 49 61 49 57 0 -15
-83 -173 -113 -215 -47 -65 -53 -82 -17 -41 46 51 90 116 132 195 21 39 38 67
38 63 1 -27 -66 -203 -95 -252 -19 -32 -33 -61 -31 -63 7 -8 66 85 95 150 16
34 33 73 40 87 11 25 11 25 6 -4 -4 -16 -10 -65 -15 -108 -13 -116 -51 -180
-178 -305 -116 -115 -167 -185 -184 -250 -11 -44 -11 -45 -24 -22 -49 89 -56
295 -13 404 20 52 40 76 145 178 67 65 134 136 149 158 26 36 45 54 29 27z
m1296 -33 c17 -21 -11 -84 -59 -131 -36 -34 -134 -79 -156 -71 -9 4 -35 89
-35 117 0 4 15 11 34 14 30 6 65 22 151 69 37 21 49 21 65 2z m-1686 -20 c-4
-8 -11 -12 -16 -9 -6 4 -5 10 3 15 19 12 19 11 13 -6z m-65 -118 c-73 -157
-77 -363 -11 -547 34 -95 33 -97 -7 -15 -22 44 -45 103 -50 130 -27 137 -31
145 -26 65 2 -41 7 -86 10 -100 l6 -25 -11 25 c-6 13 -17 60 -24 105 l-14 80
-1 -60 c0 -33 6 -85 14 -115 8 -30 12 -56 10 -58 -10 -10 -57 138 -68 213 -2
17 -5 6 -5 -25 -1 -35 7 -81 22 -125 14 -38 23 -71 22 -73 -7 -6 -56 119 -67
168 -7 31 -9 91 -6 139 4 65 2 80 -6 66 -6 -11 -13 -56 -15 -101 -5 -85 13
-171 46 -223 16 -26 16 -26 -5 -8 -11 10 -33 46 -49 80 -22 50 -28 77 -28 137
-1 115 50 209 157 292 l42 32 -37 -40 c-49 -51 -49 -69 -2 -23 l37 34 -19 -30
-18 -30 33 30 33 30 -15 -31 c-13 -24 -14 -42 -8 -75 5 -24 9 -35 10 -24 1 21
67 165 75 165 3 0 -8 -29 -25 -63z m-452 -74 c-3 -10 -5 -2 -5 17 0 19 2 27 5
18 2 -10 2 -26 0 -35z m2063 -3 c-8 -5 -19 -10 -25 -10 -5 0 -3 5 5 10 8 5 20
10 25 10 6 0 3 -5 -5 -10z m309 -1 c97 -21 241 -147 241 -212 0 -15 -7 -8 -22
23 -13 24 -29 46 -37 48 -9 3 -6 -6 7 -24 12 -16 24 -49 27 -74 l5 -45 -13 48
c-21 71 -27 67 -21 -14 l4 -74 -15 47 c-8 26 -21 50 -27 54 -8 5 -9 1 -4 -11
13 -34 17 -100 8 -130 l-9 -30 -7 36 c-3 21 -13 42 -20 48 -11 9 -12 4 -4 -31
8 -33 7 -51 -5 -78 l-15 -35 -2 30 c-4 104 -118 145 -249 90 -183 -77 -465
-85 -598 -17 l-35 19 63 33 c76 39 120 69 214 144 82 65 209 133 286 151 67
17 163 18 228 4z m-349 -13 c0 -9 -30 -14 -35 -6 -4 6 3 10 14 10 12 0 21 -2
21 -4z m-2000 -167 c9 -4 24 -31 33 -61 43 -136 161 -291 271 -357 149 -89
378 -94 570 -11 27 11 51 19 53 16 7 -7 -79 -72 -137 -104 -83 -46 -153 -63
-260 -63 -309 0 -584 193 -645 452 -8 35 -15 83 -15 107 l0 42 58 -6 c31 -4
64 -10 72 -15z m2380 -177 c14 -10 29 -35 34 -56 8 -30 6 -41 -10 -63 -31 -41
-79 -60 -194 -77 -58 -9 -115 -18 -127 -22 -23 -6 -26 2 -38 109 -5 43 -3 58
7 61 7 2 49 16 93 31 122 41 137 44 175 40 19 -3 46 -13 60 -23z m-230 -236
c-25 -7 -56 -16 -70 -20 -39 -13 -18 2 26 18 21 8 50 15 64 15 16 0 9 -5 -20
-13z m297 -94 c-31 -21 -73 -74 -89 -112 -6 -14 -19 -57 -29 -97 -23 -91 -50
-143 -102 -201 -36 -39 -135 -112 -152 -112 -3 0 13 19 35 41 60 62 48 70 -14
10 -30 -28 -58 -51 -62 -51 -4 0 7 14 25 32 18 17 37 41 43 52 6 12 -13 -1
-42 -29 l-52 -50 36 48 c49 66 45 76 -8 19 -24 -26 -59 -56 -78 -66 -26 -16
-22 -10 19 27 60 55 89 102 132 213 49 127 128 222 218 260 47 20 54 16 11 -7
-39 -20 -132 -110 -150 -144 l-11 -20 24 20 23 20 -18 -30 c-12 -20 -3 -13 28
20 44 48 45 48 25 13 -11 -21 -19 -43 -16 -50 2 -7 14 8 27 35 29 62 45 72 19
12 -11 -26 -19 -49 -16 -51 3 -3 16 20 30 50 30 64 41 74 22 19 -7 -21 -16
-56 -19 -78 -4 -27 3 -14 22 40 15 44 40 98 55 120 24 36 25 40 10 46 -15 5
-14 7 7 11 14 3 36 6 50 7 l25 1 -28 -18z m-717 -587 c-7 -8 -17 -15 -22 -15
-6 0 -5 7 2 15 7 8 17 15 22 15 6 0 5 -7 -2 -15z m-1273 -145 c122 -42 258
-62 458 -69 171 -6 178 -7 135 -20 -43 -13 -169 -11 -245 4 -23 4 -21 2 10
-10 60 -24 191 -30 240 -12 22 8 49 18 60 22 29 11 -34 -33 -71 -49 -66 -29
-195 -28 -271 1 -10 4 -14 2 -9 -5 3 -6 41 -18 82 -28 83 -18 160 -14 220 11
19 8 32 10 29 5 -3 -5 -35 -19 -71 -30 -85 -26 -184 -26 -293 0 -46 11 -86 19
-88 17 -2 -2 32 -15 74 -28 63 -19 100 -24 193 -24 104 0 120 3 173 27 38 18
80 50 118 90 39 41 59 56 59 44 0 -25 -97 -118 -150 -144 -118 -56 -272 -56
-474 3 -137 40 -251 56 -387 56 -124 0 -179 -11 -282 -56 -17 -7 -17 -4 3 36
54 106 136 170 241 188 75 12 150 3 246 -29z"/>
<path d="M1775 4271 c-32 -53 -85 -280 -85 -365 l0 -41 33 60 c56 102 88 148
150 213 69 71 63 82 -9 20 l-49 -42 40 42 c54 58 30 53 -30 -5 -50 -49 -45
-35 13 45 14 17 21 32 18 32 -4 0 -21 -15 -38 -32 l-31 -33 27 48 c15 27 26
51 23 53 -4 4 -43 -50 -66 -91 -15 -28 -14 -7 4 50 14 47 14 68 0 46z"/>
<path d="M2864 2938 c3 -13 8 -34 11 -48 5 -22 4 -22 -10 5 l-15 30 5 -35 6
-35 -16 25 c-10 15 -14 18 -11 7 4 -11 9 -31 11 -45 6 -26 5 -26 -9 3 -8 17
-15 23 -16 15 0 -10 -6 -6 -16 10 -9 14 -13 17 -10 7 4 -11 9 -31 11 -45 6
-26 5 -26 -10 3 -13 27 -15 27 -10 5 14 -66 14 -80 -1 -35 -19 59 -38 85 -23
31 16 -59 3 -54 -16 6 -10 29 -22 58 -28 63 -7 7 -8 4 -3 -9 4 -11 19 -60 33
-110 15 -50 28 -92 29 -94 1 -2 34 13 73 32 51 26 71 42 71 56 0 24 -49 180
-57 180 -3 0 -3 -10 1 -22z m23 -100 c-3 -8 -6 -5 -6 6 -1 11 2 17 5 13 3 -3
4 -12 1 -19z m-30 -50 c-3 -8 -6 -5 -6 6 -1 11 2 17 5 13 3 -3 4 -12 1 -19z
m-80 -30 c-3 -8 -6 -5 -6 6 -1 11 2 17 5 13 3 -3 4 -12 1 -19z"/>
<path d="M1620 2408 c-21 -60 -24 -188 -6 -272 10 -42 20 -76 24 -75 4 0 24
36 45 80 22 44 61 109 88 145 26 35 44 64 40 64 -13 0 -131 -129 -131 -142 0
-6 -2 -9 -5 -6 -3 3 10 42 29 87 36 86 24 93 -20 12 -14 -25 -23 -37 -20 -26
2 11 7 38 11 60 10 60 -11 32 -30 -40 l-15 -60 5 103 c2 56 3 102 1 102 -2 0
-9 -15 -16 -32z"/>
<path d="M3077 2489 c-54 -22 -122 -65 -217 -138 -35 -28 -95 -66 -133 -86
l-69 -35 34 -14 c128 -54 351 -45 505 19 50 21 37 27 -22 10 -26 -8 -58 -15
-69 -15 -20 1 -19 2 4 16 15 9 18 13 6 9 -27 -8 -150 -25 -154 -21 -4 5 107
39 193 60 l60 15 -60 -5 c-33 -3 -86 -12 -119 -20 -89 -23 -78 -10 21 24 105
36 77 42 -34 7 -95 -29 -73 -9 39 37 43 17 76 34 73 36 -5 5 -101 -26 -138
-45 -16 -8 -31 -12 -34 -9 -3 2 29 23 71 46 116 64 92 63 -36 0 -76 -38 -67
-28 27 34 39 25 66 46 62 46 -12 0 -68 -30 -114 -62 -24 -16 -43 -27 -43 -24
0 10 122 88 173 111 63 29 42 32 -26 4z"/>
<path d="M960 2338 c0 -50 52 -187 94 -251 75 -113 200 -200 356 -248 87 -27
266 -33 335 -12 41 13 150 72 143 78 -2 2 -30 -3 -63 -11 -339 -80 -622 73
-746 403 -24 64 -35 73 -91 73 -25 0 -28 -4 -28 -32z"/>
<path d="M1251 1145 c-56 -18 -138 -74 -174 -120 -34 -42 -30 -52 10 -32 49
26 150 40 241 35 82 -5 85 -5 47 7 -22 8 -69 15 -105 16 l-65 3 75 6 75 6 -60
3 -60 3 40 9 c22 6 51 7 65 4 19 -4 21 -3 10 5 -8 5 -33 10 -55 11 l-40 1 55
14 55 13 -65 -4 c-68 -4 -66 0 10 21 38 10 41 12 15 12 -16 1 -50 -6 -74 -13z"/>
</g>
</svg>
