<svg xmlns="http://www.w3.org/2000/svg" version="1.1" xmlns:xlink="http://www.w3.org/1999/xlink" xmlns:svgjs="http://svgjs.dev/svgjs" width="2000" height="1247" viewBox="0 0 2000 1247"><g transform="matrix(1,0,0,1,-1.2121212121212466,0.504858299595071)"><svg viewBox="0 0 396 247" data-background-color="#fafafa" preserveAspectRatio="xMidYMid meet" height="1247" width="2000" xmlns="http://www.w3.org/2000/svg" xmlns:xlink="http://www.w3.org/1999/xlink"><g id="tight-bounds" transform="matrix(1,0,0,1,0.2400000000000091,-0.09999999999999432)"><svg viewBox="0 0 395.52 247.2" height="247.2" width="395.52"><g><svg></svg></g><g><svg viewBox="0 0 395.52 247.2" height="247.2" width="395.52"><mask id="c73a7b2c-3a4e-4745-9213-cacfc3775ca2"><rect width="640" height="400" fill="white"></rect><g transform="matrix(1,0,0,1,39.55199999999999,77.25624242424242)"><svg viewBox="0 0 316.416 92.68751515151516" height="92.68751515151516" width="316.416"><g><svg viewBox="0 0 316.416 92.68751515151516" height="92.68751515151516" width="316.416"><g><svg viewBox="0 0 316.416 92.68751515151516" height="92.68751515151516" width="316.416"><g><svg viewBox="0 0 316.416 92.68751515151516" height="92.68751515151516" width="316.416"><g id="SvgjsG1123"><svg viewBox="0 0 316.416 92.68751515151516" height="92.68751515151516" width="316.416" id="SvgjsSvg1122"><g><svg viewBox="0 0 316.416 92.68751515151516" height="92.68751515151516" width="316.416"><g transform="matrix(1,0,0,1,0,0)"><svg width="316.416" viewBox="-8 -36.05 164.34 48.849999999999994" height="92.68751515151516" data-palette-color="#130912"><path d="M7.15-25.55L7.15-25.55Q5.3-25.55 4.45-26.3 3.6-27.05 3.6-28.85L3.6-28.85Q3.6-30.6 4.42-31.33 5.25-32.05 7.15-32.05L7.15-32.05Q9.05-32.05 9.9-31.33 10.75-30.6 10.75-28.85L10.75-28.85Q10.75-27.1 9.9-26.33 9.05-25.55 7.15-25.55ZM2.6 8.8L1.95 8.8Q0.5 8.8-0.88 8.58-2.25 8.35-3.13 8-4 7.65-4 7.3L-4 7.3-3 4.3Q-2.4 4.45-1.28 4.63-0.15 4.8 1.1 4.8L1.1 4.8Q2.45 4.8 3.28 4.15 4.1 3.5 4.1 1.5L4.1 1.5 4.1-22.4 10.2-22.4 10.2 1.5Q10.2 4.25 9.18 5.85 8.15 7.45 6.45 8.13 4.75 8.8 2.6 8.8L2.6 8.8ZM25.7 0L23.2 0Q19.4 0 17.7-1.78 16-3.55 16-6.65L16-6.65Q16-9.9 17.77-11.65 19.55-13.4 23.2-13.4L23.2-13.4 25.75-13.4Q29.5-13.4 32.5-13.2 35.5-13 37.45-12.8L37.45-12.8 37.45-16.1Q37.45-16.55 37.35-17.03 37.25-17.5 36.75-17.8 36.25-18.1 35.05-18.1L35.05-18.1 32.55-18.1Q27.1-18.1 23.45-17.93 19.8-17.75 18.5-17.6L18.5-17.6 17.95-21.4Q17.95-22.1 21.75-22.25 25.55-22.4 34.45-22.4L34.45-22.4 36.95-22.4Q39.45-22.4 40.8-21.7 42.15-21 42.72-19.95 43.3-18.9 43.42-17.82 43.55-16.75 43.55-16L43.55-16 43.55 0 39.45 0 37.5-1Q35.4-0.65 32.45-0.33 29.5 0 25.7 0L25.7 0ZM24.5-4.3L24.5-4.3 35.95-4.3Q37.05-4.3 37.25-4.5 37.45-4.7 37.45-5.75L37.45-5.75 37.45-9.6 24.5-9.6Q23.15-9.6 22.62-8.95 22.1-8.3 22.1-6.9L22.1-6.9Q22.1-5.5 22.7-4.9 23.3-4.3 24.5-4.3ZM55.4 0L49.3 0 49.3-22.4 53.4-22.4 54.65-21.8Q56.1-22.05 58.2-22.23 60.3-22.4 63.2-22.4L63.2-22.4 65.7-22.4Q67.15-22.4 68.5-22.03 69.85-21.65 70.5-20.95L70.5-20.95Q71.8-21.6 74.1-22 76.4-22.4 80.1-22.4L80.1-22.4 82.6-22.4Q85.1-22.4 86.45-21.7 87.8-21 88.37-19.95 88.95-18.9 89.07-17.82 89.2-16.75 89.2-16L89.2-16 89.2 0 83.1 0 83.1-16.1Q83.1-18.1 80.7-18.1L80.7-18.1 73.7-18.1Q72.9-18.1 72.6-17.9 72.3-17.7 72.3-17L72.3-17 72.3 0 66.2 0 66.2-16.1Q66.2-18.1 63.8-18.1L63.8-18.1 56.9-18.1Q55.95-18.1 55.67-17.93 55.4-17.75 55.4-17L55.4-17 55.4 0ZM111.09 0L101.04 0Q98.54 0 97.19-0.65 95.84-1.3 95.27-2.3 94.69-3.3 94.57-4.4 94.44-5.5 94.44-6.4L94.44-6.4 94.44-16Q94.44-16.75 94.57-17.82 94.69-18.9 95.27-19.95 95.84-21 97.22-21.7 98.59-22.4 101.04-22.4L101.04-22.4 111.79-22.4Q115.09-22.4 116.97-21.78 118.84-21.15 119.62-19.75 120.39-18.35 120.39-16L120.39-16 120.39-8.6 111.64-8.6Q107.14-8.6 104.32-8.8 101.49-9 100.54-9.05L100.54-9.05 100.54-6.3Q100.49-4.3 102.94-4.3L102.94-4.3 105.49-4.3Q108.19-4.3 110.77-4.38 113.34-4.45 115.49-4.58 117.64-4.7 118.94-4.8L118.94-4.8 120.94-1.55Q120.94 0 111.09 0L111.09 0ZM100.54-16.1L100.54-12.9 114.29-12.9 114.29-16.1Q114.29-17.1 114.07-17.5 113.84-17.9 112.74-18 111.64-18.1 108.99-18.1L108.99-18.1 102.94-18.1Q100.54-18.1 100.54-16.1L100.54-16.1ZM145.74 0L131.59 0Q128.24 0 126.84-0.35 125.44-0.7 125.44-1.05L125.44-1.05 126.94-4.8Q128.39-4.65 132.27-4.48 136.14-4.3 141.84-4.3L141.84-4.3 144.34-4.3Q145.59-4.3 145.92-4.98 146.24-5.65 146.24-6.8L146.24-6.8Q146.24-7.95 145.87-8.65 145.49-9.35 144.34-9.35L144.34-9.35 132.04-9.35Q128.54-9.35 126.99-10.68 125.44-12 125.44-14.65L125.44-14.65 125.44-16.65Q125.44-17.35 125.59-18.3 125.74-19.25 126.34-20.2 126.94-21.15 128.29-21.78 129.64-22.4 132.04-22.4L132.04-22.4 145.84-22.4Q148.84-22.4 150.09-22.05 151.34-21.7 151.34-21.35L151.34-21.35 150.84-17.6Q149.39-17.75 145.49-17.93 141.59-18.1 135.94-18.1L135.94-18.1 133.44-18.1Q132.19-18.1 131.87-17.43 131.54-16.75 131.54-15.85L131.54-15.85Q131.54-14.9 131.87-14.28 132.19-13.65 133.44-13.65L133.44-13.65 145.74-13.65Q149.14-13.65 150.74-12.25 152.34-10.85 152.34-8.7L152.34-8.7 152.34-5.75Q152.34-4.85 152.22-3.85 152.09-2.85 151.49-1.98 150.89-1.1 149.54-0.55 148.19 0 145.74 0L145.74 0Z" opacity="1" transform="matrix(1,0,0,1,0,0)" fill="black" class="wordmark-text-0" id="SvgjsPath1121" stroke-width="7" stroke="black" stroke-linejoin="round"></path></svg></g></svg></g></svg></g></svg></g><g></g></svg></g></svg></g></svg></g></mask><g transform="matrix(1,0,0,1,39.55199999999999,77.25624242424242)"><svg viewBox="0 0 316.416 92.68751515151516" height="92.68751515151516" width="316.416"><g><svg viewBox="0 0 316.416 92.68751515151516" height="92.68751515151516" width="316.416"><g><svg viewBox="0 0 316.416 92.68751515151516" height="92.68751515151516" width="316.416"><g><svg viewBox="0 0 316.416 92.68751515151516" height="92.68751515151516" width="316.416"><g id="textblocktransform"><svg viewBox="0 0 316.416 92.68751515151516" height="92.68751515151516" width="316.416" id="textblock"><g><svg viewBox="0 0 316.416 92.68751515151516" height="92.68751515151516" width="316.416"><g transform="matrix(1,0,0,1,0,0)"><svg width="316.416" viewBox="-8 -36.05 164.34 48.849999999999994" height="92.68751515151516" data-palette-color="#130912"><path d="M7.15-25.55L7.15-25.55Q5.3-25.55 4.45-26.3 3.6-27.05 3.6-28.85L3.6-28.85Q3.6-30.6 4.42-31.33 5.25-32.05 7.15-32.05L7.15-32.05Q9.05-32.05 9.9-31.33 10.75-30.6 10.75-28.85L10.75-28.85Q10.75-27.1 9.9-26.33 9.05-25.55 7.15-25.55ZM2.6 8.8L1.95 8.8Q0.5 8.8-0.88 8.58-2.25 8.35-3.13 8-4 7.65-4 7.3L-4 7.3-3 4.3Q-2.4 4.45-1.28 4.63-0.15 4.8 1.1 4.8L1.1 4.8Q2.45 4.8 3.28 4.15 4.1 3.5 4.1 1.5L4.1 1.5 4.1-22.4 10.2-22.4 10.2 1.5Q10.2 4.25 9.18 5.85 8.15 7.45 6.45 8.13 4.75 8.8 2.6 8.8L2.6 8.8ZM25.7 0L23.2 0Q19.4 0 17.7-1.78 16-3.55 16-6.65L16-6.65Q16-9.9 17.77-11.65 19.55-13.4 23.2-13.4L23.2-13.4 25.75-13.4Q29.5-13.4 32.5-13.2 35.5-13 37.45-12.8L37.45-12.8 37.45-16.1Q37.45-16.55 37.35-17.03 37.25-17.5 36.75-17.8 36.25-18.1 35.05-18.1L35.05-18.1 32.55-18.1Q27.1-18.1 23.45-17.93 19.8-17.75 18.5-17.6L18.5-17.6 17.95-21.4Q17.95-22.1 21.75-22.25 25.55-22.4 34.45-22.4L34.45-22.4 36.95-22.4Q39.45-22.4 40.8-21.7 42.15-21 42.72-19.95 43.3-18.9 43.42-17.82 43.55-16.75 43.55-16L43.55-16 43.55 0 39.45 0 37.5-1Q35.4-0.65 32.45-0.33 29.5 0 25.7 0L25.7 0ZM24.5-4.3L24.5-4.3 35.95-4.3Q37.05-4.3 37.25-4.5 37.45-4.7 37.45-5.75L37.45-5.75 37.45-9.6 24.5-9.6Q23.15-9.6 22.62-8.95 22.1-8.3 22.1-6.9L22.1-6.9Q22.1-5.5 22.7-4.9 23.3-4.3 24.5-4.3ZM55.4 0L49.3 0 49.3-22.4 53.4-22.4 54.65-21.8Q56.1-22.05 58.2-22.23 60.3-22.4 63.2-22.4L63.2-22.4 65.7-22.4Q67.15-22.4 68.5-22.03 69.85-21.65 70.5-20.95L70.5-20.95Q71.8-21.6 74.1-22 76.4-22.4 80.1-22.4L80.1-22.4 82.6-22.4Q85.1-22.4 86.45-21.7 87.8-21 88.37-19.95 88.95-18.9 89.07-17.82 89.2-16.75 89.2-16L89.2-16 89.2 0 83.1 0 83.1-16.1Q83.1-18.1 80.7-18.1L80.7-18.1 73.7-18.1Q72.9-18.1 72.6-17.9 72.3-17.7 72.3-17L72.3-17 72.3 0 66.2 0 66.2-16.1Q66.2-18.1 63.8-18.1L63.8-18.1 56.9-18.1Q55.95-18.1 55.67-17.93 55.4-17.75 55.4-17L55.4-17 55.4 0ZM111.09 0L101.04 0Q98.54 0 97.19-0.65 95.84-1.3 95.27-2.3 94.69-3.3 94.57-4.4 94.44-5.5 94.44-6.4L94.44-6.4 94.44-16Q94.44-16.75 94.57-17.82 94.69-18.9 95.27-19.95 95.84-21 97.22-21.7 98.59-22.4 101.04-22.4L101.04-22.4 111.79-22.4Q115.09-22.4 116.97-21.78 118.84-21.15 119.62-19.75 120.39-18.35 120.39-16L120.39-16 120.39-8.6 111.64-8.6Q107.14-8.6 104.32-8.8 101.49-9 100.54-9.05L100.54-9.05 100.54-6.3Q100.49-4.3 102.94-4.3L102.94-4.3 105.49-4.3Q108.19-4.3 110.77-4.38 113.34-4.45 115.49-4.58 117.64-4.7 118.94-4.8L118.94-4.8 120.94-1.55Q120.94 0 111.09 0L111.09 0ZM100.54-16.1L100.54-12.9 114.29-12.9 114.29-16.1Q114.29-17.1 114.07-17.5 113.84-17.9 112.74-18 111.64-18.1 108.99-18.1L108.99-18.1 102.94-18.1Q100.54-18.1 100.54-16.1L100.54-16.1ZM145.74 0L131.59 0Q128.24 0 126.84-0.35 125.44-0.7 125.44-1.05L125.44-1.05 126.94-4.8Q128.39-4.65 132.27-4.48 136.14-4.3 141.84-4.3L141.84-4.3 144.34-4.3Q145.59-4.3 145.92-4.98 146.24-5.65 146.24-6.8L146.24-6.8Q146.24-7.95 145.87-8.65 145.49-9.35 144.34-9.35L144.34-9.35 132.04-9.35Q128.54-9.35 126.99-10.68 125.44-12 125.44-14.65L125.44-14.65 125.44-16.65Q125.44-17.35 125.59-18.3 125.74-19.25 126.34-20.2 126.94-21.15 128.29-21.78 129.64-22.4 132.04-22.4L132.04-22.4 145.84-22.4Q148.84-22.4 150.09-22.05 151.34-21.7 151.34-21.35L151.34-21.35 150.84-17.6Q149.39-17.75 145.49-17.93 141.59-18.1 135.94-18.1L135.94-18.1 133.44-18.1Q132.19-18.1 131.87-17.43 131.54-16.75 131.54-15.85L131.54-15.85Q131.54-14.9 131.87-14.28 132.19-13.65 133.44-13.65L133.44-13.65 145.74-13.65Q149.14-13.65 150.74-12.25 152.34-10.85 152.34-8.7L152.34-8.7 152.34-5.75Q152.34-4.85 152.22-3.85 152.09-2.85 151.49-1.98 150.89-1.1 149.54-0.55 148.19 0 145.74 0L145.74 0Z" opacity="1" transform="matrix(1,0,0,1,0,0)" fill="#130912" class="wordmark-text-0" data-fill-palette-color="primary" id="text-0"></path></svg></g></svg></g></svg></g></svg></g><g></g></svg></g></svg></g></svg></g><g mask="url(#c73a7b2c-3a4e-4745-9213-cacfc3775ca2)"><g transform="matrix(3.0645055912779124, 0, 0, 3.0645055912779124, 100.6151727564902, 1)"><svg xmlns="http://www.w3.org/2000/svg" xmlns:xlink="http://www.w3.org/1999/xlink" version="1.1" x="0" y="0" viewBox="-250.70000000000002 140.98709328582086 63.39999999999998 80.01290671417914" enable-background="new -269 131 100 100" xml:space="preserve" height="80.01290671417914" width="63.39999999999998" class="icon-none" data-fill-palette-color="accent" id="none"><path d="M-200.1 163.7l-1-0.8c-1.2-1-3.1-0.6-3.8 0.8-0.3 0.7-0.6 7.7-0.6 8.9 0 0.2 0 0.6 0 0.7 0 1-0.9 1.8-1.9 1.6-0.8-0.1-1.4-0.9-1.4-1.7-0.1-12-3.7-20.4-10.5-26.7-4.1-3.8-9-7.2-10.5-4.6-0.4 0.7 0.2 2.2 0.9 4.1 1.4 4.3-2.9 11.2-9 18.1-5.7 6.5-12.8 14.5-12.8 26.4 0 16 15.1 30.5 31.7 30.5 16.6 0 31.7-14.5 31.7-30.5C-187.3 180.4-192.1 170.4-200.1 163.7zM-219 215.2c-7.2 0-13.1-5.9-13.1-13.1 0-3.6 1.4-6.8 3.8-9.2l7.2-8.6c1.1-1.3 3.2-1.3 4.3 0l7.2 8.6c2.3 2.4 3.8 5.6 3.8 9.2C-205.9 209.3-211.8 215.2-219 215.2z" fill="#e77917" data-fill-palette-color="accent"></path></svg></g></g></svg></g><defs></defs></svg><rect width="395.52" height="247.2" fill="none" stroke="none" visibility="hidden"></rect></g></svg></g></svg>